<svg width="397" height="382" viewBox="0 0 397 382" fill="none" xmlns="http://www.w3.org/2000/svg">
<path d="M173.2 380.106C173.2 380.106 178.299 379.187 187.65 376.454C196.999 373.79 210.598 369.318 227.134 361.893C243.613 354.414 263.192 344.147 283.427 329.185C303.593 314.239 324.622 294.808 342.763 269.815C351.886 257.387 360.286 243.628 367.597 228.691C368.5 226.861 369.406 225.023 370.318 223.179C371.164 221.226 372.012 219.268 372.864 217.3C373.713 215.332 374.568 213.358 375.423 211.375C376.142 209.402 376.864 207.422 377.59 205.436C378.297 203.438 379.092 201.476 379.736 199.43C380.353 197.372 380.973 195.305 381.596 193.229C382.956 189.109 383.82 184.83 384.852 180.566C388.759 163.447 389.861 145.261 388.082 126.985C386.126 108.738 380.903 90.4016 372.018 73.5476C367.534 65.1582 362.221 57.1244 356.066 49.6903C349.905 42.2562 342.784 35.5634 335.003 29.6962C319.452 18.0162 300.742 9.83478 281.001 7.96646C242.303 5.31465 198.131 22.0753 178.275 57.7301C173.137 66.3816 169.378 75.8769 166.949 85.7007C164.493 95.4883 163.186 105.704 163.193 115.672C163.226 120.753 163.761 125.526 165.019 130.215C165.637 132.529 166.467 134.759 167.512 136.76C168.538 138.743 169.916 140.506 171.235 141.392C172.64 142.157 172.981 142.097 174.236 141.19C175.406 140.108 176.511 138.125 177.276 135.986C178.82 131.707 179.623 126.551 179.963 121.907C181.065 102.296 173.137 82.5095 159.517 69.0455C152.685 62.3045 144.39 57.1997 135.43 53.9392C126.382 50.8806 116.88 49.4342 107.369 49.2142C88.3829 48.8013 69.7369 54.4636 54.6726 64.8659C47.0758 69.9736 40.3127 76.1451 34.4766 82.9826C28.6285 89.805 23.578 97.2029 19.5026 104.996C11.3038 120.554 6.41583 137.333 4.92596 153.825C4.19457 162.088 4.23671 170.218 5.30219 178.204C6.05465 186.373 7.40306 194.054 9.08556 201.597C12.5348 216.658 18.0007 230.646 25.6638 242.384C26.642 243.833 27.5359 245.337 28.5683 246.72C29.6518 248.064 30.7263 249.396 31.7948 250.722L33.39 252.705C33.9589 253.328 34.5699 253.904 35.1568 254.504C36.3367 255.694 37.5105 256.872 38.6753 258.044C43.6717 262.308 48.8426 266.247 54.5884 268.582L56.6832 269.559C57.3905 269.848 58.134 270.032 58.8533 270.273C60.304 270.722 61.7398 271.171 63.1664 271.611C66.11 272.036 68.9754 272.813 71.8679 272.699C73.3006 272.674 74.7393 272.919 76.1358 272.68C77.5384 272.515 78.9259 272.349 80.3045 272.186C80.6175 272.141 81.0659 272.117 81.2616 272.057L82.294 271.792C82.9622 271.602 83.7086 271.478 84.2714 271.213L86.0713 270.523L87.817 269.619C92.3649 267.088 95.9075 263.104 97.4846 258.623C99.2484 254.166 98.6525 249.348 96.991 245.379C95.2303 241.368 92.6057 238.038 89.4544 235.667C86.4686 233.455 82.6973 232.521 79.4105 232.952C72.6986 233.898 68.3132 239.171 67.8919 243.682C67.2086 248.317 69.4028 251.629 70.5977 253.633C72.1689 255.513 72.9785 256.483 72.9785 256.483L73.0538 256.571C73.3006 256.866 73.2614 257.303 72.9665 257.55C72.6745 257.794 72.2411 257.758 71.9913 257.469C71.9913 257.469 71.1184 256.447 69.4239 254.47C69.0266 253.955 68.7075 253.28 68.2862 252.584C67.8979 251.867 67.3621 251.138 67.1304 250.17C66.4652 248.353 65.9144 246.042 66.3237 243.459C66.7722 238.291 71.6241 232.307 79.1728 231.159C82.923 230.652 87.0886 231.556 90.6673 234.148C94.0053 236.598 96.982 240.223 98.9143 244.544C100.801 248.868 101.542 254.335 99.6216 259.382C97.897 264.457 94.0203 268.905 89.021 271.77L87.0977 272.795L84.9998 273.627C84.2805 273.946 83.6243 274.055 82.932 274.257L81.9027 274.534C81.4151 274.666 81.1412 274.654 80.7469 274.721C79.2871 274.91 77.8093 275.106 76.3224 275.299C74.8356 275.561 73.3126 275.338 71.7866 275.378C68.7075 275.525 65.6646 274.76 62.5313 274.332C61.0174 273.883 59.4884 273.431 57.9473 272.976C57.1828 272.729 56.3913 272.539 55.6418 272.244L53.4205 271.246C47.3196 268.838 41.8477 264.788 36.5624 260.383C35.3314 259.174 34.0913 257.96 32.8423 256.736C32.2252 256.119 31.5781 255.522 30.9792 254.877L29.2936 252.84C28.165 251.475 27.0302 250.101 25.8895 248.718C24.7999 247.295 23.8579 245.756 22.8255 244.264C14.738 232.198 8.95614 217.878 5.23597 202.507C3.41201 194.811 1.91612 186.729 1.07938 178.689C-0.112517 170.538 -0.275051 161.976 0.384104 153.43C1.68436 136.287 6.66866 118.881 15.0691 102.651C19.2528 94.524 24.4568 86.7735 30.5277 79.5895C36.5865 72.3964 43.6476 65.8543 51.6357 60.4C67.4615 49.2986 87.3324 43.103 107.435 43.4133C117.467 43.57 127.625 45.0195 137.431 48.277C147.162 51.7334 156.312 57.26 163.852 64.6007C178.892 79.2972 187.578 100.647 186.582 122.127C186.51 123.739 186.341 124.857 186.221 126.249C186.028 127.581 185.887 128.91 185.637 130.248C185.194 132.918 184.538 135.606 183.593 138.3C182.597 140.973 181.357 143.754 178.759 146.243C177.414 147.443 175.515 148.531 173.309 148.696C171.117 148.877 169.032 148.133 167.548 147.15C164.562 145.131 162.834 142.546 161.426 139.994C160.056 137.411 159.066 134.753 158.326 132.065C156.836 126.743 156.21 121.114 156.14 115.805C156.059 104.981 157.447 94.3763 160.017 83.9409C162.569 73.5265 166.545 63.3893 172.032 54.0839C182.76 35.3283 199.87 20.2281 219.537 11.7513C221.996 10.6876 224.422 9.55755 226.908 8.55709L234.622 6.10416C239.799 4.24187 244.835 3.40715 249.894 2.31931C260.35 0.0351339 271.153 -0.528375 281.738 0.481121C302.994 2.4519 323.018 11.1818 339.578 23.5579C347.864 29.7776 355.428 36.8652 361.969 44.7151C368.503 52.5681 374.137 61.0419 378.89 69.8893C388.308 87.6564 393.846 106.96 395.944 126.132C397.867 145.33 396.732 164.396 392.702 182.266C391.64 186.72 390.737 191.186 389.337 195.477C388.693 197.637 388.052 199.792 387.411 201.937C386.74 204.077 385.903 206.177 385.159 208.287C384.392 210.393 383.627 212.49 382.866 214.579C382.014 216.568 381.162 218.544 380.317 220.518C379.468 222.489 378.625 224.451 377.782 226.403C376.804 228.371 375.832 230.33 374.863 232.28C367.266 247.615 358.546 261.745 349.089 274.498C330.109 300.003 308.234 319.753 287.108 334.332C265.967 348.962 245.873 359.069 228.807 365.849C211.702 372.587 197.797 376.508 188.225 378.699C178.648 380.868 173.414 381.48 173.414 381.48L173.399 381.483C173.017 381.528 172.668 381.254 172.625 380.871C172.589 380.507 172.842 380.172 173.2 380.106Z" fill="white"/>
</svg>
